<svg xmlns="http://www.w3.org/2000/svg" xmlns:xlink="http://www.w3.org/1999/xlink" version="1.1" width="256" height="256" viewBox="0 0 256 256" xml:space="preserve">
<g style="stroke: none; stroke-width: 0; stroke-dasharray: none; stroke-linecap: butt; stroke-linejoin: miter; stroke-miterlimit: 10; fill: none; fill-rule: nonzero; opacity: 1;" transform="translate(1.4065934065934016 1.4065934065934016) scale(2.81 2.81)">
	<path d="M 48.712 15.55 h 10.301 c 1.941 0 3.515 1.574 3.515 3.515 v 64.664 c 0 1.941 -1.574 3.515 -3.515 3.515 H 4.515 C 2.574 87.243 1 85.669 1 83.728 V 19.064 c 0 -1.941 1.574 -3.515 3.515 -3.515 h 10.301" style="stroke: none; stroke-width: 1; stroke-dasharray: none; stroke-linecap: butt; stroke-linejoin: miter; stroke-miterlimit: 10; fill: rgb(202,243,244); fill-rule: nonzero; opacity: 1;" transform=" matrix(1 0 0 1 0 0) " stroke-linecap="round"/>
	<path d="M 39.163 9.408 c -0.395 -3.738 -3.556 -6.651 -7.399 -6.651 S 24.76 5.67 24.365 9.408 h -4.337 c -2.879 0 -5.212 2.333 -5.212 5.212 v 5.397 h 33.897 V 14.62 c 0 -2.879 -2.333 -5.212 -5.212 -5.212 H 39.163 z" style="stroke: none; stroke-width: 1; stroke-dasharray: none; stroke-linecap: butt; stroke-linejoin: miter; stroke-miterlimit: 10; fill: rgb(80,117,141); fill-rule: nonzero; opacity: 1;" transform=" matrix(1 0 0 1 0 0) " stroke-linecap="round"/>
	<polygon points="18.36,27.55 8.43,27.55 8.43,40.59 22.36,40.59 22.36,35.45 22.36,27.55 " style="stroke: none; stroke-width: 1; stroke-dasharray: none; stroke-linecap: butt; stroke-linejoin: miter; stroke-miterlimit: 10; fill: rgb(144,219,71); fill-rule: nonzero; opacity: 1;" transform="  matrix(1 0 0 1 0 0) "/>
	<polygon points="18.36,47.28 8.43,47.28 8.43,60.31 22.36,60.31 22.36,55.17 22.36,47.28 " style="stroke: none; stroke-width: 1; stroke-dasharray: none; stroke-linecap: butt; stroke-linejoin: miter; stroke-miterlimit: 10; fill: rgb(144,219,71); fill-rule: nonzero; opacity: 1;" transform="  matrix(1 0 0 1 0 0) "/>
	<polygon points="18.36,67.01 8.43,67.01 8.43,80.04 22.36,80.04 22.36,74.9 22.36,67.01 " style="stroke: none; stroke-width: 1; stroke-dasharray: none; stroke-linecap: butt; stroke-linejoin: miter; stroke-miterlimit: 10; fill: rgb(144,219,71); fill-rule: nonzero; opacity: 1;" transform="  matrix(1 0 0 1 0 0) "/>
	<path d="M 59.013 88.242 H 4.515 C 2.025 88.242 0 86.217 0 83.728 V 19.064 c 0 -2.489 2.025 -4.515 4.515 -4.515 h 10.301 c 0.552 0 1 0.448 1 1 s -0.448 1 -1 1 H 4.515 C 3.128 16.55 2 17.678 2 19.064 v 64.663 c 0 1.387 1.128 2.515 2.515 2.515 h 54.498 c 1.387 0 2.515 -1.128 2.515 -2.515 V 19.064 c 0 -1.387 -1.128 -2.515 -2.515 -2.515 H 48.712 c -0.553 0 -1 -0.448 -1 -1 s 0.447 -1 1 -1 h 10.301 c 2.489 0 4.515 2.025 4.515 4.515 v 64.663 C 63.527 86.217 61.502 88.242 59.013 88.242 z" style="stroke: none; stroke-width: 1; stroke-dasharray: none; stroke-linecap: butt; stroke-linejoin: miter; stroke-miterlimit: 10; fill: rgb(0,0,0); fill-rule: nonzero; opacity: 1;" transform=" matrix(1 0 0 1 0 0) " stroke-linecap="round"/>
	<path d="M 48.712 21.018 H 14.815 c -0.552 0 -1 -0.448 -1 -1 V 14.62 c 0 -3.425 2.787 -6.212 6.212 -6.212 h 3.486 c 0.825 -3.849 4.226 -6.651 8.25 -6.651 s 7.425 2.802 8.25 6.651 H 43.5 c 3.425 0 6.212 2.787 6.212 6.212 v 5.397 C 49.712 20.57 49.265 21.018 48.712 21.018 z M 15.815 19.018 h 31.896 V 14.62 c 0 -2.322 -1.89 -4.212 -4.212 -4.212 h -4.337 c -0.512 0 -0.941 -0.386 -0.995 -0.895 c -0.347 -3.281 -3.1 -5.756 -6.404 -5.756 s -6.058 2.475 -6.404 5.756 c -0.054 0.509 -0.483 0.895 -0.995 0.895 h -4.337 c -2.322 0 -4.212 1.89 -4.212 4.212 V 19.018 z" style="stroke: none; stroke-width: 1; stroke-dasharray: none; stroke-linecap: butt; stroke-linejoin: miter; stroke-miterlimit: 10; fill: rgb(0,0,0); fill-rule: nonzero; opacity: 1;" transform=" matrix(1 0 0 1 0 0) " stroke-linecap="round"/>
	<path d="M 15.517 37.645 c -0.028 0 -0.057 -0.001 -0.085 -0.004 c -0.311 -0.026 -0.591 -0.196 -0.758 -0.459 l -2.841 -4.465 c -0.296 -0.466 -0.159 -1.084 0.307 -1.38 c 0.465 -0.297 1.084 -0.16 1.38 0.307 l 2.139 3.361 l 7.565 -8.316 c 0.372 -0.408 1.004 -0.438 1.413 -0.067 c 0.409 0.372 0.438 1.004 0.067 1.413 l -8.446 9.285 C 16.066 37.527 15.797 37.645 15.517 37.645 z" style="stroke: none; stroke-width: 1; stroke-dasharray: none; stroke-linecap: butt; stroke-linejoin: miter; stroke-miterlimit: 10; fill: rgb(0,0,0); fill-rule: nonzero; opacity: 1;" transform=" matrix(1 0 0 1 0 0) " stroke-linecap="round"/>
	<path d="M 22.361 41.585 H 8.433 c -0.552 0 -1 -0.448 -1 -1 V 27.554 c 0 -0.552 0.448 -1 1 -1 h 9.925 c 0.552 0 1 0.448 1 1 s -0.448 1 -1 1 H 9.433 v 11.031 h 11.928 v -4.139 c 0 -0.552 0.448 -1 1 -1 s 1 0.448 1 1 v 5.139 C 23.361 41.137 22.914 41.585 22.361 41.585 z" style="stroke: none; stroke-width: 1; stroke-dasharray: none; stroke-linecap: butt; stroke-linejoin: miter; stroke-miterlimit: 10; fill: rgb(0,0,0); fill-rule: nonzero; opacity: 1;" transform=" matrix(1 0 0 1 0 0) " stroke-linecap="round"/>
	<path d="M 52.214 31.834 H 28.879 c -0.552 0 -1 -0.448 -1 -1 s 0.448 -1 1 -1 h 23.335 c 0.553 0 1 0.448 1 1 S 52.767 31.834 52.214 31.834 z" style="stroke: none; stroke-width: 1; stroke-dasharray: none; stroke-linecap: butt; stroke-linejoin: miter; stroke-miterlimit: 10; fill: rgb(0,0,0); fill-rule: nonzero; opacity: 1;" transform=" matrix(1 0 0 1 0 0) " stroke-linecap="round"/>
	<path d="M 46.127 38.111 H 28.879 c -0.552 0 -1 -0.448 -1 -1 s 0.448 -1 1 -1 h 17.248 c 0.553 0 1 0.448 1 1 S 46.68 38.111 46.127 38.111 z" style="stroke: none; stroke-width: 1; stroke-dasharray: none; stroke-linecap: butt; stroke-linejoin: miter; stroke-miterlimit: 10; fill: rgb(0,0,0); fill-rule: nonzero; opacity: 1;" transform=" matrix(1 0 0 1 0 0) " stroke-linecap="round"/>
	<path d="M 15.517 57.373 c -0.028 0 -0.057 -0.001 -0.085 -0.004 c -0.311 -0.026 -0.591 -0.196 -0.758 -0.459 l -2.841 -4.465 c -0.296 -0.466 -0.159 -1.084 0.307 -1.381 c 0.466 -0.295 1.084 -0.158 1.381 0.307 l 2.139 3.361 l 7.565 -8.317 c 0.372 -0.407 1.004 -0.438 1.413 -0.067 c 0.409 0.372 0.438 1.005 0.067 1.413 l -8.446 9.285 C 16.066 57.255 15.797 57.373 15.517 57.373 z" style="stroke: none; stroke-width: 1; stroke-dasharray: none; stroke-linecap: butt; stroke-linejoin: miter; stroke-miterlimit: 10; fill: rgb(0,0,0); fill-rule: nonzero; opacity: 1;" transform=" matrix(1 0 0 1 0 0) " stroke-linecap="round"/>
	<path d="M 22.361 61.313 H 8.433 c -0.552 0 -1 -0.447 -1 -1 V 47.282 c 0 -0.553 0.448 -1 1 -1 h 9.925 c 0.552 0 1 0.447 1 1 s -0.448 1 -1 1 H 9.433 v 11.031 h 11.928 v -4.139 c 0 -0.553 0.448 -1 1 -1 s 1 0.447 1 1 v 5.139 C 23.361 60.866 22.914 61.313 22.361 61.313 z" style="stroke: none; stroke-width: 1; stroke-dasharray: none; stroke-linecap: butt; stroke-linejoin: miter; stroke-miterlimit: 10; fill: rgb(0,0,0); fill-rule: nonzero; opacity: 1;" transform=" matrix(1 0 0 1 0 0) " stroke-linecap="round"/>
	<path d="M 37.813 51.563 h -8.935 c -0.552 0 -1 -0.447 -1 -1 s 0.448 -1 1 -1 h 8.935 c 0.552 0 1 0.447 1 1 S 38.366 51.563 37.813 51.563 z" style="stroke: none; stroke-width: 1; stroke-dasharray: none; stroke-linecap: butt; stroke-linejoin: miter; stroke-miterlimit: 10; fill: rgb(0,0,0); fill-rule: nonzero; opacity: 1;" transform=" matrix(1 0 0 1 0 0) " stroke-linecap="round"/>
	<path d="M 35.566 57.84 h -6.688 c -0.552 0 -1 -0.447 -1 -1 s 0.448 -1 1 -1 h 6.688 c 0.552 0 1 0.447 1 1 S 36.119 57.84 35.566 57.84 z" style="stroke: none; stroke-width: 1; stroke-dasharray: none; stroke-linecap: butt; stroke-linejoin: miter; stroke-miterlimit: 10; fill: rgb(0,0,0); fill-rule: nonzero; opacity: 1;" transform=" matrix(1 0 0 1 0 0) " stroke-linecap="round"/>
	<path d="M 15.517 77.102 c -0.028 0 -0.057 -0.001 -0.085 -0.004 c -0.311 -0.026 -0.591 -0.196 -0.758 -0.459 l -2.841 -4.466 c -0.296 -0.466 -0.159 -1.084 0.307 -1.381 c 0.465 -0.296 1.084 -0.158 1.38 0.307 l 2.139 3.361 l 7.565 -8.316 c 0.372 -0.408 1.004 -0.438 1.413 -0.067 c 0.409 0.372 0.438 1.005 0.067 1.413 l -8.446 9.285 C 16.066 76.983 15.797 77.102 15.517 77.102 z" style="stroke: none; stroke-width: 1; stroke-dasharray: none; stroke-linecap: butt; stroke-linejoin: miter; stroke-miterlimit: 10; fill: rgb(0,0,0); fill-rule: nonzero; opacity: 1;" transform=" matrix(1 0 0 1 0 0) " stroke-linecap="round"/>
	<path d="M 22.361 81.042 H 8.433 c -0.552 0 -1 -0.447 -1 -1 V 67.011 c 0 -0.553 0.448 -1 1 -1 h 9.925 c 0.552 0 1 0.447 1 1 s -0.448 1 -1 1 H 9.433 v 11.031 h 11.928 v -4.139 c 0 -0.553 0.448 -1 1 -1 s 1 0.447 1 1 v 5.139 C 23.361 80.595 22.914 81.042 22.361 81.042 z" style="stroke: none; stroke-width: 1; stroke-dasharray: none; stroke-linecap: butt; stroke-linejoin: miter; stroke-miterlimit: 10; fill: rgb(0,0,0); fill-rule: nonzero; opacity: 1;" transform=" matrix(1 0 0 1 0 0) " stroke-linecap="round"/>
	<path d="M 34.933 71.291 h -6.054 c -0.552 0 -1 -0.447 -1 -1 s 0.448 -1 1 -1 h 6.054 c 0.552 0 1 0.447 1 1 S 35.485 71.291 34.933 71.291 z" style="stroke: none; stroke-width: 1; stroke-dasharray: none; stroke-linecap: butt; stroke-linejoin: miter; stroke-miterlimit: 10; fill: rgb(0,0,0); fill-rule: nonzero; opacity: 1;" transform=" matrix(1 0 0 1 0 0) " stroke-linecap="round"/>
	<path d="M 39.407 77.568 H 28.879 c -0.552 0 -1 -0.447 -1 -1 s 0.448 -1 1 -1 h 10.528 c 0.552 0 1 0.447 1 1 S 39.959 77.568 39.407 77.568 z" style="stroke: none; stroke-width: 1; stroke-dasharray: none; stroke-linecap: butt; stroke-linejoin: miter; stroke-miterlimit: 10; fill: rgb(0,0,0); fill-rule: nonzero; opacity: 1;" transform=" matrix(1 0 0 1 0 0) " stroke-linecap="round"/>
	<path d="M 31.764 11.427 c -0.552 0 -1 -0.448 -1 -1 V 8.043 c 0 -0.552 0.448 -1 1 -1 s 1 0.448 1 1 v 2.384 C 32.764 10.979 32.316 11.427 31.764 11.427 z" style="stroke: none; stroke-width: 1; stroke-dasharray: none; stroke-linecap: butt; stroke-linejoin: miter; stroke-miterlimit: 10; fill: rgb(0,0,0); fill-rule: nonzero; opacity: 1;" transform=" matrix(1 0 0 1 0 0) " stroke-linecap="round"/>
	<path d="M 70.433 67.37 L 70.433 67.37 c -2.962 -1.227 -2.962 -5.422 0 -6.649 l 0 0 c 0.42 -0.174 0.62 -0.656 0.446 -1.076 l -1.552 -3.747 c -0.174 -0.42 -0.656 -0.62 -1.076 -0.446 l 0 0 c -2.962 1.227 -5.928 -1.74 -4.701 -4.701 l 0 0 c 0.174 -0.42 -0.026 -0.902 -0.446 -1.076 l -3.747 -1.553 c -0.42 -0.174 -0.902 0.026 -1.076 0.446 c -1.227 2.962 -5.422 2.962 -6.649 0 c -0.174 -0.42 -0.656 -0.62 -1.076 -0.446 l -3.747 1.552 c -0.42 0.174 -0.62 0.656 -0.446 1.076 c 1.227 2.962 -1.74 5.928 -4.702 4.702 c -0.42 -0.174 -0.902 0.026 -1.076 0.446 l -1.552 3.747 c -0.174 0.42 0.026 0.902 0.446 1.076 l 0 0 c 2.962 1.227 2.962 5.422 0 6.649 l 0 0 c -0.42 0.174 -0.62 0.656 -0.446 1.076 l 1.552 3.747 c 0.174 0.42 0.656 0.62 1.076 0.446 l 0 0 c 2.962 -1.227 5.928 1.74 4.701 4.702 l 0 0 c -0.174 0.42 0.026 0.902 0.446 1.076 l 3.747 1.552 c 0.42 0.174 0.902 -0.026 1.076 -0.446 l 0 0 c 1.227 -2.962 5.422 -2.962 6.649 0 l 0 0 c 0.174 0.42 0.656 0.62 1.076 0.446 l 3.747 -1.552 c 0.42 -0.174 0.62 -0.656 0.446 -1.076 l 0 0 c -1.227 -2.962 1.74 -5.928 4.702 -4.701 c 0.42 0.174 0.902 -0.026 1.076 -0.446 l 1.552 -3.747 C 71.053 68.026 70.854 67.545 70.433 67.37 z M 54.955 70.951 c -3.813 0 -6.905 -3.091 -6.905 -6.905 c 0 -3.813 3.091 -6.905 6.905 -6.905 c 3.813 0 6.905 3.091 6.905 6.905 C 61.86 67.859 58.768 70.951 54.955 70.951 z" style="stroke: none; stroke-width: 1; stroke-dasharray: none; stroke-linecap: butt; stroke-linejoin: miter; stroke-miterlimit: 10; fill: rgb(80,117,141); fill-rule: nonzero; opacity: 1;" transform=" matrix(1 0 0 1 0 0) " stroke-linecap="round"/>
	<path d="M 50.869 81.033 c -0.236 0 -0.473 -0.047 -0.698 -0.14 l -3.747 -1.553 c -0.45 -0.187 -0.801 -0.537 -0.987 -0.987 c -0.187 -0.45 -0.186 -0.946 0.001 -1.396 c 0.489 -1.182 0.03 -2.237 -0.564 -2.83 c -0.593 -0.593 -1.651 -1.053 -2.832 -0.563 c -0.451 0.186 -0.946 0.186 -1.396 0 c -0.451 -0.187 -0.801 -0.538 -0.987 -0.988 l -1.552 -3.746 c -0.187 -0.449 -0.187 -0.945 0 -1.396 c 0.187 -0.451 0.537 -0.802 0.987 -0.987 c 1.183 -0.49 1.604 -1.562 1.604 -2.4 s -0.421 -1.91 -1.604 -2.4 c -0.929 -0.387 -1.371 -1.455 -0.987 -2.384 l 1.552 -3.746 c 0.186 -0.449 0.536 -0.801 0.987 -0.987 c 0.45 -0.186 0.945 -0.188 1.396 0 c 1.183 0.488 2.239 0.03 2.832 -0.563 c 0.594 -0.593 1.053 -1.648 0.563 -2.831 c -0.384 -0.93 0.059 -1.998 0.986 -2.384 l 3.748 -1.552 c 0.451 -0.186 0.946 -0.188 1.396 0 c 0.45 0.187 0.801 0.536 0.987 0.986 c 0.49 1.183 1.562 1.604 2.4 1.604 s 1.91 -0.422 2.4 -1.604 c 0.387 -0.928 1.456 -1.368 2.383 -0.986 l 3.748 1.553 c 0.449 0.187 0.8 0.536 0.986 0.986 c 0.188 0.45 0.188 0.946 0.001 1.396 c -0.49 1.183 -0.031 2.237 0.563 2.831 c 0.593 0.593 1.646 1.053 2.832 0.563 c 0.451 -0.186 0.946 -0.186 1.396 0 c 0.451 0.187 0.802 0.538 0.987 0.988 l 1.552 3.745 c 0.385 0.928 -0.057 1.997 -0.984 2.383 c -1.185 0.491 -1.606 1.563 -1.606 2.401 s 0.422 1.91 1.604 2.4 c 0 0 0.001 0 0.002 0.001 c 0.928 0.386 1.369 1.455 0.984 2.384 l -1.553 3.746 c -0.187 0.45 -0.537 0.8 -0.987 0.986 c -0.449 0.188 -0.944 0.186 -1.396 0 c -1.186 -0.49 -2.239 -0.029 -2.832 0.563 c -0.594 0.594 -1.053 1.648 -0.563 2.831 c 0.187 0.449 0.188 0.945 0.001 1.396 s -0.537 0.801 -0.987 0.987 l -3.747 1.553 c -0.449 0.186 -0.946 0.186 -1.396 0 c -0.451 -0.187 -0.802 -0.538 -0.987 -0.988 c -0.49 -1.182 -1.561 -1.604 -2.4 -1.604 l 0 0 c -0.84 0 -1.911 0.422 -2.401 1.604 c -0.186 0.449 -0.536 0.801 -0.987 0.987 C 51.342 80.986 51.105 81.033 50.869 81.033 z M 47.35 77.56 l 3.427 1.42 c 0.758 -1.656 2.343 -2.678 4.179 -2.678 c 0 0 0 0 0.001 0 c 1.836 0.001 3.421 1.021 4.177 2.678 l 3.427 -1.42 c -0.636 -1.706 -0.236 -3.549 1.062 -4.847 c 1.298 -1.299 3.142 -1.696 4.848 -1.062 l 1.42 -3.428 c -1.655 -0.757 -2.677 -2.342 -2.677 -4.178 s 1.021 -3.421 2.678 -4.178 l -1.42 -3.428 c -1.707 0.635 -3.551 0.237 -4.848 -1.062 c -1.298 -1.299 -1.696 -3.141 -1.061 -4.847 l -3.429 -1.42 c -0.756 1.655 -2.341 2.677 -4.178 2.677 c -1.836 0 -3.421 -1.021 -4.178 -2.677 l -3.428 1.42 c 0.636 1.705 0.237 3.549 -1.062 4.847 c -1.298 1.299 -3.141 1.697 -4.847 1.062 l -1.42 3.428 c 1.656 0.756 2.678 2.341 2.678 4.178 c 0 1.836 -1.021 3.421 -2.677 4.178 l 1.42 3.428 c 1.705 -0.635 3.55 -0.237 4.847 1.062 C 47.587 74.011 47.985 75.854 47.35 77.56 z M 54.955 71.951 c -4.358 0 -7.904 -3.546 -7.904 -7.905 c 0 -4.358 3.546 -7.904 7.904 -7.904 c 4.359 0 7.905 3.546 7.905 7.904 C 62.86 68.405 59.314 71.951 54.955 71.951 z M 54.955 58.142 c -3.256 0 -5.904 2.648 -5.904 5.904 s 2.648 5.905 5.904 5.905 s 5.905 -2.649 5.905 -5.905 S 58.211 58.142 54.955 58.142 z" style="stroke: none; stroke-width: 1; stroke-dasharray: none; stroke-linecap: butt; stroke-linejoin: miter; stroke-miterlimit: 10; fill: rgb(0,0,0); fill-rule: nonzero; opacity: 1;" transform=" matrix(1 0 0 1 0 0) " stroke-linecap="round"/>
	<polygon points="80.28,30 70.81,39.47 71.71,47.29 79.53,48.19 89,38.72 81.18,37.82 " style="stroke: none; stroke-width: 1; stroke-dasharray: none; stroke-linecap: butt; stroke-linejoin: miter; stroke-miterlimit: 10; fill: rgb(80,117,141); fill-rule: nonzero; opacity: 1;" transform="  matrix(1 0 0 1 0 0) "/>
	<path d="M 54.955 65.046 c -0.256 0 -0.512 -0.098 -0.707 -0.293 c -0.391 -0.391 -0.391 -1.023 0 -1.414 l 16.758 -16.758 c 0.391 -0.391 1.023 -0.391 1.414 0 s 0.391 1.023 0 1.414 L 55.662 64.753 C 55.467 64.948 55.211 65.046 54.955 65.046 z" style="stroke: none; stroke-width: 1; stroke-dasharray: none; stroke-linecap: butt; stroke-linejoin: miter; stroke-miterlimit: 10; fill: rgb(0,0,0); fill-rule: nonzero; opacity: 1;" transform=" matrix(1 0 0 1 0 0) " stroke-linecap="round"/>
	<path d="M 79.53 49.187 c -0.038 0 -0.076 -0.002 -0.114 -0.007 l -7.817 -0.898 c -0.462 -0.053 -0.826 -0.417 -0.879 -0.879 l -0.898 -7.817 c -0.035 -0.303 0.07 -0.605 0.286 -0.821 l 9.47 -9.47 c 0.271 -0.272 0.675 -0.364 1.036 -0.237 c 0.362 0.126 0.62 0.449 0.664 0.83 l 0.808 7.029 l 7.029 0.808 c 0.381 0.044 0.704 0.302 0.83 0.665 s 0.034 0.765 -0.237 1.036 l -9.47 9.469 C 80.049 49.082 79.794 49.187 79.53 49.187 z M 72.615 46.386 l 6.55 0.752 l 7.664 -7.664 l -5.761 -0.662 c -0.462 -0.053 -0.826 -0.417 -0.879 -0.879 l -0.662 -5.761 l -7.664 7.664 L 72.615 46.386 z" style="stroke: none; stroke-width: 1; stroke-dasharray: none; stroke-linecap: butt; stroke-linejoin: miter; stroke-miterlimit: 10; fill: rgb(0,0,0); fill-rule: nonzero; opacity: 1;" transform=" matrix(1 0 0 1 0 0) " stroke-linecap="round"/>
</g>
</svg>